HIERARCHY
ROOT Hips
{
	OFFSET 0.000000 0.000000 0.000000
	CHANNELS 6 Xposition Yposition Zposition Xrotation Yrotation Zrotation
	JOINT LeftUpLeg_virtual
	{
		OFFSET 0.000000 0.000000 0.000000
		CHANNELS 3 Xrotation Yrotation Zrotation
		JOINT LeftUpLeg
		{
			OFFSET 15.427100 -6.655098 0.678600
			CHANNELS 3 Xrotation Yrotation Zrotation
			JOINT LeftLeg
			{
				OFFSET 4.081073 -39.591068 13.024000
				CHANNELS 3 Xrotation Yrotation Zrotation
				JOINT LeftFoot
				{
					OFFSET -4.081074 -37.707932 -15.979700
					CHANNELS 3 Xrotation Yrotation Zrotation
					JOINT LeftToeBase
					{
						OFFSET 5.346399 -15.068900 20.645000
						CHANNELS 3 Xrotation Yrotation Zrotation
						JOINT LeftToe_End
						{
							OFFSET 2.754700 0.931300 11.300900
							CHANNELS 3 Xrotation Yrotation Zrotation
							End Site
							{
								OFFSET 0 0 0
							}
						}
					}
				}
			}
		}
	}
	JOINT RightUpLeg_virtual
	{
		OFFSET 0.000000 0.000000 0.000000
		CHANNELS 3 Xrotation Yrotation Zrotation
		JOINT RightUpLeg
		{
			OFFSET -15.569500 -6.655098 0.678600
			CHANNELS 3 Xrotation Yrotation Zrotation
			JOINT RightLeg
			{
				OFFSET -4.081825 -39.591045 13.023800
				CHANNELS 3 Xrotation Yrotation Zrotation
				JOINT RightFoot
				{
					OFFSET 4.081824 -37.707954 -15.979600
					CHANNELS 3 Xrotation Yrotation Zrotation
					JOINT RightToeBase
					{
						OFFSET -5.346400 -15.068900 20.645000
						CHANNELS 3 Xrotation Yrotation Zrotation
						JOINT RightToe_End
						{
							OFFSET -2.754700 0.931300 11.300900
							CHANNELS 3 Xrotation Yrotation Zrotation
							End Site
							{
								OFFSET 0 0 0
							}
						}
					}
				}
			}
		}
	}
	JOINT Spine_virtual
	{
		OFFSET 0.000000 0.000000 0.000000
		CHANNELS 3 Xrotation Yrotation Zrotation
		JOINT Spine
		{
			OFFSET -0.279200 12.230698 -2.892100
			CHANNELS 3 Xrotation Yrotation Zrotation
			JOINT Spine1
			{
				OFFSET -0.232667 10.192268 -1.242267
				CHANNELS 3 Xrotation Yrotation Zrotation
				JOINT Spine1_split
				{
					OFFSET -0.232667 10.192268 -1.242267
					CHANNELS 3 Xrotation Yrotation Zrotation
					JOINT Spine2
					{
						OFFSET -0.232667 10.192268 -1.242267
						CHANNELS 3 Xrotation Yrotation Zrotation
						JOINT Neck_virtual
						{
							OFFSET 0.000000 0.000000 0.000000
							CHANNELS 3 Xrotation Yrotation Zrotation
							JOINT Neck
							{
								OFFSET -0.418800 17.814194 8.416900
								CHANNELS 3 Xrotation Yrotation Zrotation
								JOINT Head
								{
									OFFSET 0.000000 7.031097 3.806800
									CHANNELS 3 Xrotation Yrotation Zrotation
									JOINT HeadTop_End
									{
										OFFSET 0.000000 24.646606 12.978600
										CHANNELS 3 Xrotation Yrotation Zrotation
										End Site
										{
											OFFSET 0 0 0
										}
									}
								}
							}
						}
						JOINT LeftShoulder_virtual
						{
							OFFSET 0.000000 0.000000 0.000000
							CHANNELS 3 Xrotation Yrotation Zrotation
							JOINT LeftShoulder
							{
								OFFSET 8.476499 7.247704 -3.868750
								CHANNELS 3 Xrotation Yrotation Zrotation
								JOINT LeftShoulder_split
								{
									OFFSET 8.476499 7.247704 -3.868750
									CHANNELS 3 Xrotation Yrotation Zrotation
									JOINT LeftArm
									{
										OFFSET 9.308998 -2.777710 0.208600
										CHANNELS 3 Xrotation Yrotation Zrotation
										JOINT LeftForeArm
										{
											OFFSET 29.972298 0.000000 0.000000
											CHANNELS 3 Xrotation Yrotation Zrotation
											JOINT LeftHand
											{
												OFFSET 26.026505 0.000000 0.000000
												CHANNELS 3 Xrotation Yrotation Zrotation
												End Site
												{
													OFFSET 0 0 0
												}
											}
										}
									}
								}
							}
						}
						JOINT RightShoulder_virtual
						{
							OFFSET 0.000000 0.000000 0.000000
							CHANNELS 3 Xrotation Yrotation Zrotation
							JOINT RightShoulder
							{
								OFFSET -7.570500 7.247704 -3.868750
								CHANNELS 3 Xrotation Yrotation Zrotation
								JOINT RightShoulder_split
								{
									OFFSET -7.570500 7.247704 -3.868750
									CHANNELS 3 Xrotation Yrotation Zrotation
									JOINT RightArm
									{
										OFFSET -9.308998 -2.777710 0.208500
										CHANNELS 3 Xrotation Yrotation Zrotation
										JOINT RightForeArm
										{
											OFFSET -29.972300 0.000000 0.000000
											CHANNELS 3 Xrotation Yrotation Zrotation
											JOINT RightHand
											{
												OFFSET -26.026505 0.000000 0.000000
												CHANNELS 3 Xrotation Yrotation Zrotation
												End Site
												{
													OFFSET 0 0 0
												}
											}
										}
									}
								}
							}
						}
					}
				}
			}
		}
	}
}
MOTION
Frames: 9
Frame Time: 0.03333333
3.522032 72.006554 -9.392834 0.000000 0.000000 0.000000 8.861528 -3.182395 4.462398 -52.495502 -1.804721 22.635226 48.395719 -5.958255 4.701181 5.111337 7.077411 -30.857524 1.045079 -4.912519 3.014306 0.000000 0.000000 0.000000 9.169844 -3.132217 4.501058 -34.333203 -5.208451 -34.184410 50.711416 19.031598 -4.604522 -18.519915 -20.481970 34.743543 5.288926 8.478090 -9.653601 0.000000 0.000000 0.000000 9.043355 4.081235 3.239515 3.850248 -0.085757 -2.392372 9.557058 -0.301572 1.134133 0.062714 0.153561 -0.100947 0.000000 0.000000 0.000000 8.564685 2.391800 0.971301 -2.111551 -3.048841 -7.897619 -32.527079 2.833244 -6.329758 0.000000 0.000000 0.000000 7.099387 0.415693 -0.424598 4.586376 -23.955956 -2.142193 -2.960743 -5.264320 -0.054588 -16.154191 1.259175 -40.156858 -164.161739 -67.508859 -163.480264 0.000000 0.000000 0.000000 9.209677 1.603204 0.757007 -0.509582 7.261197 6.151729 5.308043 4.372862 4.580116 8.597735 2.722746 39.042850 -87.758287 84.601155 94.155353 0.000000 0.000000 0.000000 
3.569724 72.014061 -9.310219 0.000000 0.000000 0.000000 8.888997 -3.215555 4.434522 -52.480120 -1.918760 22.659685 48.488920 -5.962168 4.712562 5.208124 7.092999 -30.953461 1.029031 -4.930696 3.065992 0.000000 0.000000 0.000000 9.165446 -3.126997 4.467004 -34.348297 -5.206158 -34.179397 50.663560 19.039183 -4.586732 -18.444292 -20.501643 34.804479 5.296218 8.472712 -9.652253 0.000000 0.000000 0.000000 9.021789 4.045124 3.179949 3.799520 -0.076888 -2.413573 9.596635 -0.321536 1.129228 0.067942 0.168713 -0.103873 0.000000 0.000000 0.000000 8.564568 2.370174 0.971111 -2.046622 -2.943800 -7.963264 -32.384539 3.121419 -6.283055 0.000000 0.000000 0.000000 7.126099 0.398946 -0.414997 4.581623 -23.978593 -2.159127 -2.909090 -5.274524 -0.100880 -16.340669 1.124620 -40.267537 -164.150087 -67.616510 -163.439583 0.000000 0.000000 0.000000 9.224063 1.570433 0.749731 -0.505386 7.431732 6.139815 5.547228 4.618773 4.516603 8.680796 2.642146 38.936296 -89.091505 84.627137 95.506924 0.000000 0.000000 0.000000 
3.638005 72.020439 -9.210403 0.000000 0.000000 0.000000 8.953489 -3.318175 4.402125 -52.437500 -2.118103 22.616421 48.631295 -5.892704 4.721286 5.211305 7.215538 -30.922192 0.903932 -4.940807 2.996571 0.000000 0.000000 0.000000 9.187256 -3.235539 4.444819 -34.408673 -5.161875 -34.152732 50.570219 19.017180 -4.582645 -18.327209 -20.529771 34.811504 5.463585 8.448273 -9.687639 0.000000 0.000000 0.000000 9.005616 3.968699 3.115096 3.721300 -0.034758 -2.448581 9.644729 -0.349899 1.121627 0.073440 0.165911 -0.102771 0.000000 0.000000 0.000000 8.563142 2.337377 0.968746 -1.947032 -2.765464 -8.079443 -31.979263 3.564639 -6.301320 0.000000 0.000000 0.000000 7.160600 0.371346 -0.416509 4.559120 -23.963295 -2.129606 -2.743908 -5.275581 -0.144420 -16.634470 0.968195 -40.505757 -164.208334 -67.938683 -163.510016 0.000000 0.000000 0.000000 9.254261 1.535097 0.736891 -0.474828 7.639753 6.108949 5.613218 4.737616 4.506914 8.988822 2.811898 38.452958 -88.368366 84.692269 94.826125 0.000000 0.000000 0.000000 
3.703346 72.009300 -9.121067 0.000000 0.000000 0.000000 9.020983 -3.462388 4.368200 -52.385249 -2.356631 22.535989 48.803816 -5.786139 4.732546 5.126979 7.422863 -30.792402 0.693464 -4.939225 2.827377 0.000000 0.000000 0.000000 9.234762 -3.413851 4.425464 -34.506228 -5.069675 -34.092944 50.483783 18.961894 -4.587812 -18.133534 -20.562889 34.799534 5.655108 8.416661 -9.744112 0.000000 0.000000 0.000000 8.988983 3.890002 3.062496 3.633588 0.035713 -2.491694 9.691147 -0.388372 1.105574 0.078991 0.150285 -0.094191 0.000000 0.000000 0.000000 8.553811 2.294614 0.959016 -1.834553 -2.521428 -8.224883 -31.373757 4.120906 -6.376754 0.000000 0.000000 0.000000 7.194928 0.330998 -0.436333 4.519748 -23.939096 -2.068720 -2.511203 -5.252049 -0.200744 -16.966275 0.791776 -40.798103 -164.302864 -68.382768 -163.662876 0.000000 0.000000 0.000000 9.286926 1.492191 0.715163 -0.421338 7.874283 6.059035 5.539130 4.765108 4.579654 9.429130 3.142542 37.693034 -86.277399 84.772770 92.805496 0.000000 0.000000 0.000000 
3.748173 71.977341 -9.082218 0.000000 0.000000 0.000000 9.071599 -3.575052 4.324723 -52.337192 -2.599017 22.439581 48.982087 -5.687631 4.759525 5.011133 7.663336 -30.616985 0.469326 -4.928387 2.607764 0.000000 0.000000 0.000000 9.298386 -3.550201 4.391728 -34.613305 -4.924184 -33.997915 50.411109 18.892669 -4.605750 -17.851989 -20.591224 34.839890 5.650399 8.395471 -9.800294 0.000000 0.000000 0.000000 8.981813 3.850262 3.030862 3.559407 0.124063 -2.539155 9.732528 -0.442218 1.072044 0.080794 0.136367 -0.082181 0.000000 0.000000 0.000000 8.534617 2.239427 0.934852 -1.737217 -2.227938 -8.377470 -30.697517 4.736048 -6.482579 0.000000 0.000000 0.000000 7.225419 0.276404 -0.478902 4.473100 -23.936965 -1.978259 -2.263631 -5.181612 -0.258104 -17.273965 0.597081 -41.048327 -164.407995 -68.804546 -163.854572 0.000000 0.000000 0.000000 9.313510 1.439784 0.678189 -0.346811 8.117859 6.000940 5.362402 4.768035 4.721480 9.879595 3.527396 36.761236 -83.986629 84.839235 90.618019 0.000000 0.000000 0.000000 
3.773058 71.922920 -9.113323 0.000000 0.000000 0.000000 9.101949 -3.634019 4.272807 -52.344893 -2.814949 22.360590 49.163620 -5.637306 4.800353 4.945752 7.872562 -30.465205 0.331723 -4.908286 2.377266 0.000000 0.000000 0.000000 9.361287 -3.588738 4.337953 -34.693451 -4.724842 -33.864057 50.346585 18.829307 -4.644148 -17.566126 -20.603120 34.920496 5.463003 8.384307 -9.837689 0.000000 0.000000 0.000000 8.994807 3.858909 3.031762 3.524103 0.221469 -2.581968 9.772150 -0.509644 1.016312 0.078290 0.119154 -0.072459 0.000000 0.000000 0.000000 8.505028 2.175471 0.893610 -1.666634 -1.906074 -8.510590 -30.035405 5.381859 -6.594907 0.000000 0.000000 0.000000 7.246182 0.209741 -0.543951 4.422959 -23.967260 -1.882338 -2.060785 -5.034841 -0.340202 -17.507086 0.416959 -41.162606 -164.515433 -69.077733 -164.064122 0.000000 0.000000 0.000000 9.328296 1.376973 0.625782 -0.256777 8.360688 5.939991 5.193721 4.735770 4.890098 10.220575 3.805219 35.791930 -82.034185 84.888139 88.811577 0.000000 0.000000 0.000000 
3.774852 71.872307 -9.191784 0.000000 0.000000 0.000000 9.103075 -3.633106 4.223631 -52.413697 -2.969987 22.331247 49.296019 -5.643492 4.856351 4.966248 8.007977 -30.366902 0.288131 -4.894001 2.234815 0.000000 0.000000 0.000000 9.401558 -3.556363 4.273853 -34.720515 -4.515191 -33.695290 50.291103 18.772809 -4.696546 -17.390244 -20.597054 34.918540 5.359725 8.364451 -9.840458 0.000000 0.000000 0.000000 9.016890 3.890825 3.061922 3.536940 0.328852 -2.607990 9.800763 -0.584509 0.943808 0.073630 0.110443 -0.069324 0.000000 0.000000 0.000000 8.467103 2.108588 0.838565 -1.624409 -1.565051 -8.606102 -29.450259 6.030919 -6.697485 0.000000 0.000000 0.000000 7.257665 0.140312 -0.622019 4.375530 -24.039964 -1.790427 -1.977646 -4.850650 -0.442552 -17.593027 0.280544 -41.114054 -164.571140 -69.150379 -164.215397 0.000000 0.000000 0.000000 9.328601 1.308646 0.564213 -0.155193 8.601446 5.867479 5.120457 4.704614 5.057918 10.391710 3.868148 34.872374 -81.292324 84.935738 88.257054 0.000000 0.000000 0.000000 
3.754337 71.849487 -9.295517 0.000000 0.000000 0.000000 9.074641 -3.585024 4.196433 -52.493976 -3.039606 22.333865 49.327251 -5.699334 4.924469 5.086318 8.046433 -30.343078 0.378679 -4.894334 2.216416 0.000000 0.000000 0.000000 9.394841 -3.496978 4.231699 -34.715341 -4.341625 -33.533384 50.242393 18.715683 -4.745171 -17.356242 -20.572043 34.791652 5.454837 8.329090 -9.805619 0.000000 0.000000 0.000000 9.031866 3.928529 3.121892 3.580275 0.440336 -2.609668 9.813385 -0.657704 0.864700 0.070023 0.109813 -0.074293 0.000000 0.000000 0.000000 8.423499 2.044240 0.781676 -1.590244 -1.229007 -8.653963 -28.974878 6.639236 -6.797723 0.000000 0.000000 0.000000 7.261889 0.078593 -0.698799 4.336207 -24.139171 -1.719652 -2.024958 -4.720681 -0.552414 -17.512999 0.232945 -40.941223 -164.491473 -69.083962 -164.215247 0.000000 0.000000 0.000000 9.318779 1.248578 0.505745 -0.040684 8.847041 5.773194 5.069673 4.561992 5.275475 10.389151 3.682704 34.039518 -83.111115 85.004955 90.299465 0.000000 0.000000 0.000000 
3.706919 71.864609 -9.405575 0.000000 0.000000 0.000000 8.998191 -3.523619 4.208414 -52.524018 -3.034021 22.343581 49.221741 -5.807250 5.007623 5.287085 7.992861 -30.423083 0.573625 -4.910779 2.320187 0.000000 0.000000 0.000000 9.300526 -3.501242 4.250321 -34.704290 -4.213871 -33.411469 50.218867 18.681034 -4.786749 -17.372257 -20.506345 34.643420 5.563703 8.298232 -9.745878 0.000000 0.000000 0.000000 9.001085 3.967058 3.205888 3.631697 0.552674 -2.568023 9.803750 -0.709830 0.797073 0.067663 0.115125 -0.078544 0.000000 0.000000 0.000000 8.370830 1.996989 0.740896 -1.545065 -0.914833 -8.647040 -28.559131 7.197872 -6.908834 0.000000 0.000000 0.000000 7.243431 0.034091 -0.758759 4.302808 -24.256821 -1.681234 -2.179800 -4.660297 -0.639276 -17.318242 0.326139 -40.705158 -164.249575 -68.977233 -164.046227 0.000000 0.000000 0.000000 9.299125 1.210784 0.466893 0.091975 9.087632 5.649154 4.995423 4.381442 5.547062 10.269841 3.216948 33.261829 -88.399778 85.076099 95.824159 0.000000 0.000000 0.000000 
